<mxfile host="65bd71144e">
    <diagram id="D0ugZhrUXfXYTwpKVx_7" name="Page-1">
        <mxGraphModel dx="1074" dy="790" grid="1" gridSize="10" guides="1" tooltips="1" connect="1" arrows="1" fold="1" page="1" pageScale="1" pageWidth="850" pageHeight="1100" math="0" shadow="0">
            <root>
                <mxCell id="0"/>
                <mxCell id="1" parent="0"/>
                <mxCell id="33" value="" style="swimlane;labelBackgroundColor=none;fillColor=#666666;startSize=70;swimlaneFillColor=default;" vertex="1" parent="1">
                    <mxGeometry x="60" y="260" width="660" height="380" as="geometry">
                        <mxRectangle x="30" y="440" width="50" height="40" as="alternateBounds"/>
                    </mxGeometry>
                </mxCell>
                <mxCell id="2" value="Azure DevOps" style="shape=image;verticalLabelPosition=bottom;verticalAlign=top;imageAspect=0;aspect=fixed;image=data:image/svg+xml,PHN2ZyB4bWxuczpkYz0iaHR0cDovL3B1cmwub3JnL2RjL2VsZW1lbnRzLzEuMS8iIHhtbG5zOmNjPSJodHRwOi8vY3JlYXRpdmVjb21tb25zLm9yZy9ucyMiIHhtbG5zOnJkZj0iaHR0cDovL3d3dy53My5vcmcvMTk5OS8wMi8yMi1yZGYtc3ludGF4LW5zIyIgeG1sbnM6c3ZnPSJodHRwOi8vd3d3LnczLm9yZy8yMDAwL3N2ZyIgeG1sbnM9Imh0dHA6Ly93d3cudzMub3JnLzIwMDAvc3ZnIiB4bWxuczpzb2RpcG9kaT0iaHR0cDovL3NvZGlwb2RpLnNvdXJjZWZvcmdlLm5ldC9EVEQvc29kaXBvZGktMC5kdGQiIHhtbG5zOmlua3NjYXBlPSJodHRwOi8vd3d3Lmlua3NjYXBlLm9yZy9uYW1lc3BhY2VzL2lua3NjYXBlIiB2aWV3Qm94PSIwIDAgNDAgNDAiIGNsYXNzPSIiIHJvbGU9InByZXNlbnRhdGlvbiIgZm9jdXNhYmxlPSJmYWxzZSIgaWQ9IkZ4U3ltYm9sMC0wNGMiIHZlcnNpb249IjEuMSIgc29kaXBvZGk6ZG9jbmFtZT0iQXp1cmUgRGV2T3BzLnN2ZyIgaW5rc2NhcGU6dmVyc2lvbj0iMC45Mi4zICgyNDA1NTQ2LCAyMDE4LTAzLTExKSI+JiN4YTsgIDxtZXRhZGF0YSBpZD0ibWV0YWRhdGE2MDQ5Ij4mI3hhOyAgICA8cmRmOlJERj4mI3hhOyAgICAgIDxjYzpXb3JrIHJkZjphYm91dD0iIj4mI3hhOyAgICAgICAgPGRjOmZvcm1hdD5pbWFnZS9zdmcreG1sPC9kYzpmb3JtYXQ+JiN4YTsgICAgICAgIDxkYzp0eXBlIHJkZjpyZXNvdXJjZT0iaHR0cDovL3B1cmwub3JnL2RjL2RjbWl0eXBlL1N0aWxsSW1hZ2UiLz4mI3hhOyAgICAgICAgPGRjOnRpdGxlLz4mI3hhOyAgICAgIDwvY2M6V29yaz4mI3hhOyAgICA8L3JkZjpSREY+JiN4YTsgIDwvbWV0YWRhdGE+JiN4YTsgIDxkZWZzIGlkPSJkZWZzNjA0NyIvPiYjeGE7ICA8c29kaXBvZGk6bmFtZWR2aWV3IHBhZ2Vjb2xvcj0iI2ZmZmZmZiIgYm9yZGVyY29sb3I9IiM2NjY2NjYiIGJvcmRlcm9wYWNpdHk9IjEiIG9iamVjdHRvbGVyYW5jZT0iMTAiIGdyaWR0b2xlcmFuY2U9IjEwIiBndWlkZXRvbGVyYW5jZT0iMTAiIGlua3NjYXBlOnBhZ2VvcGFjaXR5PSIwIiBpbmtzY2FwZTpwYWdlc2hhZG93PSIyIiBpbmtzY2FwZTp3aW5kb3ctd2lkdGg9IjY0MCIgaW5rc2NhcGU6d2luZG93LWhlaWdodD0iNDgwIiBpZD0ibmFtZWR2aWV3NjA0NSIgc2hvd2dyaWQ9ImZhbHNlIiBpbmtzY2FwZTp6b29tPSI3LjgyNSIgaW5rc2NhcGU6Y3g9IjIwIiBpbmtzY2FwZTpjeT0iMjAiIGlua3NjYXBlOndpbmRvdy14PSIwIiBpbmtzY2FwZTp3aW5kb3cteT0iMCIgaW5rc2NhcGU6d2luZG93LW1heGltaXplZD0iMSIgaW5rc2NhcGU6Y3VycmVudC1sYXllcj0iRnhTeW1ib2wwLTA0YyIvPiYjeGE7ICA8ZyBpZD0iZzYwNDIiPiYjeGE7ICAgIDx0aXRsZSBpZD0idGl0bGU2MDM4Ii8+JiN4YTsgICAgPHBhdGggZD0iTTM4IDguNnYyMkwyOC45IDM4bC0xNC01LjFWMzhMNy4xIDI3LjdsMjMuMSAxLjhWOS43TDM4IDguNnptLTcuNyAxLjFMMTcuNCAydjUuMUw1LjUgMTAuNiAyIDE1LjJ2MTAuNGw1LjEgMi4yVjE0LjVsMjMuMi00Ljh6IiBmaWxsPSIjMDA3OGQ0IiBpZD0icGF0aDYwNDAiLz4mI3hhOyAgPC9nPiYjeGE7PC9zdmc+" vertex="1" parent="33">
                    <mxGeometry x="310" width="40" height="40" as="geometry"/>
                </mxCell>
                <mxCell id="34" value="" style="group" vertex="1" connectable="0" parent="33">
                    <mxGeometry x="110" y="110" width="420" height="230" as="geometry"/>
                </mxCell>
                <mxCell id="17" value="automation repo" style="shape=image;verticalLabelPosition=top;verticalAlign=bottom;imageAspect=0;aspect=fixed;image=data:image/svg+xml,PHN2ZyB4bWxuczpkYz0iaHR0cDovL3B1cmwub3JnL2RjL2VsZW1lbnRzLzEuMS8iIHhtbG5zOmNjPSJodHRwOi8vY3JlYXRpdmVjb21tb25zLm9yZy9ucyMiIHhtbG5zOnJkZj0iaHR0cDovL3d3dy53My5vcmcvMTk5OS8wMi8yMi1yZGYtc3ludGF4LW5zIyIgeG1sbnM6c3ZnPSJodHRwOi8vd3d3LnczLm9yZy8yMDAwL3N2ZyIgeG1sbnM9Imh0dHA6Ly93d3cudzMub3JnLzIwMDAvc3ZnIiB4bWxuczpzb2RpcG9kaT0iaHR0cDovL3NvZGlwb2RpLnNvdXJjZWZvcmdlLm5ldC9EVEQvc29kaXBvZGktMC5kdGQiIHhtbG5zOmlua3NjYXBlPSJodHRwOi8vd3d3Lmlua3NjYXBlLm9yZy9uYW1lc3BhY2VzL2lua3NjYXBlIiB3aWR0aD0iNDkiIGhlaWdodD0iNDkiIHZpZXdCb3g9IjAgMCA0OSA0OSIgZmlsbD0ibm9uZSIgdmVyc2lvbj0iMS4xIiBpZD0ic3ZnNjE5MyIgc29kaXBvZGk6ZG9jbmFtZT0iQXp1cmUgUmVwb3Muc3ZnIiBpbmtzY2FwZTp2ZXJzaW9uPSIwLjkyLjMgKDI0MDU1NDYsIDIwMTgtMDMtMTEpIj4mI3hhOyAgPG1ldGFkYXRhIGlkPSJtZXRhZGF0YTYxOTkiPiYjeGE7ICAgIDxyZGY6UkRGPiYjeGE7ICAgICAgPGNjOldvcmsgcmRmOmFib3V0PSIiPiYjeGE7ICAgICAgICA8ZGM6Zm9ybWF0PmltYWdlL3N2Zyt4bWw8L2RjOmZvcm1hdD4mI3hhOyAgICAgICAgPGRjOnR5cGUgcmRmOnJlc291cmNlPSJodHRwOi8vcHVybC5vcmcvZGMvZGNtaXR5cGUvU3RpbGxJbWFnZSIvPiYjeGE7ICAgICAgICA8ZGM6dGl0bGUvPiYjeGE7ICAgICAgPC9jYzpXb3JrPiYjeGE7ICAgIDwvcmRmOlJERj4mI3hhOyAgPC9tZXRhZGF0YT4mI3hhOyAgPGRlZnMgaWQ9ImRlZnM2MTk3Ii8+JiN4YTsgIDxzb2RpcG9kaTpuYW1lZHZpZXcgcGFnZWNvbG9yPSIjZmZmZmZmIiBib3JkZXJjb2xvcj0iIzY2NjY2NiIgYm9yZGVyb3BhY2l0eT0iMSIgb2JqZWN0dG9sZXJhbmNlPSIxMCIgZ3JpZHRvbGVyYW5jZT0iMTAiIGd1aWRldG9sZXJhbmNlPSIxMCIgaW5rc2NhcGU6cGFnZW9wYWNpdHk9IjAiIGlua3NjYXBlOnBhZ2VzaGFkb3c9IjIiIGlua3NjYXBlOndpbmRvdy13aWR0aD0iNjQwIiBpbmtzY2FwZTp3aW5kb3ctaGVpZ2h0PSI0ODAiIGlkPSJuYW1lZHZpZXc2MTk1IiBzaG93Z3JpZD0iZmFsc2UiIGlua3NjYXBlOnpvb209IjYuMzg3NzU1MSIgaW5rc2NhcGU6Y3g9IjI0LjUiIGlua3NjYXBlOmN5PSIyNC41IiBpbmtzY2FwZTp3aW5kb3cteD0iMCIgaW5rc2NhcGU6d2luZG93LXk9IjAiIGlua3NjYXBlOndpbmRvdy1tYXhpbWl6ZWQ9IjEiIGlua3NjYXBlOmN1cnJlbnQtbGF5ZXI9InN2ZzYxOTMiLz4mI3hhOyAgPHBhdGggZD0iTTM3LjIzOTcgMC4zNDE3OTdIMTIuMzI3MkMxMS4zNjY0IDAuMzQxNzk3IDEwLjU5MzggMS4xMTQ0MyAxMC41OTM4IDIuMDc1MjdWNy43NTExNUgzOC45NzMyVjIuMDc1MjdDMzguOTczMiAxLjExNDQzIDM4LjIwMDUgMC4zNDE3OTcgMzcuMjM5NyAwLjM0MTc5N1oiIGZpbGw9IiNCQzMyMDAiIGlkPSJwYXRoNjE4MSIvPiYjeGE7ICA8cGF0aCBkPSJNNDAuMTczMyAzLjgwODU5SDkuMzk2NzNDOC4wMDk5NSAzLjgwODU5IDYuODkwNjIgNC45Mjc5MiA2Ljg5MDYyIDYuMzE0N1Y4LjI4NTlINDIuNjc5NFY2LjMxNDdDNDIuNjc5NCA0LjkyNzkyIDQxLjU2MDEgMy44MDg1OSA0MC4xNzMzIDMuODA4NTlaIiBmaWxsPSIjRDEzNjAwIiBpZD0icGF0aDYxODMiLz4mI3hhOyAgPHBhdGggZD0iTTQzLjc3OSA3LjM2NTIzSDUuNzkxMjZDNC40MDQ0OCA3LjM2NTIzIDMuMjg1MTYgOC40ODQ1NiAzLjI4NTE2IDkuODcxMzRWNDUuNTUxMUMzLjI4NTE2IDQ2LjkzNzkgNC40MTQzOSA0OC4wNjcxIDUuODAxMTcgNDguMDY3MUg0My43NjkxQzQ1LjE1NTkgNDguMDY3MSA0Ni4yODUyIDQ2LjkzNzkgNDYuMjg1MiA0NS41NTExVjkuODcxMzRDNDYuMjg1MiA4LjQ4NDU2IDQ1LjE2NTggNy4zNjUyMyA0My43NzkgNy4zNjUyM1oiIGZpbGw9IiNFMTU4MTUiIGlkPSJwYXRoNjE4NSIvPiYjeGE7ICA8cGF0aCBkPSJNMTUuOTczNyAxMS4wMzkxQzEzLjMzODggMTEuMDM5MSAxMS4xOTkyIDEzLjE3ODcgMTEuMTk5MiAxNS44MTM1QzExLjE5OTIgMTguNDQ4NCAxMy4zMzg4IDIwLjU4OCAxNS45NzM3IDIwLjU4OEMxOC42MDg2IDIwLjU4OCAyMC43NDgyIDE4LjQ0ODQgMjAuNzQ4MiAxNS44MTM1QzIwLjc0ODIgMTMuMTc4NyAxOC42MDg2IDExLjAzOTEgMTUuOTczNyAxMS4wMzkxWk0xNS45NzM3IDE4LjkwNDFDMTQuMjYgMTguOTA0MSAxMi44NzMzIDE3LjUxNzMgMTIuODczMyAxNS44MDM2QzEyLjg3MzMgMTQuMDkgMTQuMjYgMTIuNzAzMiAxNS45NzM3IDEyLjcwMzJDMTcuNjg3NCAxMi43MDMyIDE5LjA3NDEgMTQuMDkgMTkuMDc0MSAxNS44MDM2QzE5LjA3NDEgMTcuNTE3MyAxNy42ODc0IDE4LjkwNDEgMTUuOTczNyAxOC45MDQxWiIgZmlsbD0iI0ZGQjI5MCIgaWQ9InBhdGg2MTg3Ii8+JiN4YTsgIDxwYXRoIGQ9Ik0xNy43NjY4IDIwLjA3NDJIMTQuMjMwNVYyOS43NTE5SDE3Ljc2NjhWMjAuMDc0MloiIGZpbGw9IiNGRkIyOTAiIGlkPSJwYXRoNjE4OSIvPiYjeGE7ICA8cGF0aCBkPSJNMzguNjQ5MyAxNS44ODM5QzM4LjY0OTMgMTMuMjQ5IDM2LjUwOTcgMTEuMTA5NCAzMy44NzQ4IDExLjEwOTRDMzEuMjQgMTEuMTA5NCAyOS4xMDA0IDEzLjI0OSAyOS4xMDA0IDE1Ljg4MzlDMjkuMTAwNCAxNy45MTQ1IDMwLjM2ODMgMTkuNjQ4IDMyLjE2MTIgMjAuMzQxM1YyMy42MjAxTDE0LjIzMjEgMjkuNTQzNkgxNC4yMDI0VjM1LjYxNTdDMTIuNDQ5MSAzNi4zMTkgMTEuMjEwOSAzOC4wNDI2IDExLjIxMDkgNDAuMDQzNUMxMS4yMTA5IDQyLjY3ODQgMTMuMzUwNSA0NC44MTggMTUuOTg1NCA0NC44MThDMTguNjIwMyA0NC44MTggMjAuNzU5OSA0Mi42Nzg0IDIwLjc1OTkgNDAuMDQzNUMyMC43NTk5IDM4LjA2MjQgMTkuNTUxNCAzNi4zNTg2IDE3LjgzNzggMzUuNjM1NVYzMS44NzE0TDM1LjY2NzcgMjUuOTc3NkwzNS42MjgxIDI1LjkwODNIMzUuNjY3N1YyMC4zMDE3QzM3LjQxMTEgMTkuNTk4NCAzOC42NDkzIDE3Ljg4NDggMzguNjQ5MyAxNS44ODM5Wk0xOS4wNzU5IDQwLjA1MzRDMTkuMDc1OSA0MS43NjcxIDE3LjY4OTIgNDMuMTUzOCAxNS45NzU1IDQzLjE1MzhDMTQuMjYxOCA0My4xNTM4IDEyLjg3NTEgNDEuNzY3MSAxMi44NzUxIDQwLjA1MzRDMTIuODc1MSAzOC4zMzk3IDE0LjI2MTggMzYuOTUzIDE1Ljk3NTUgMzYuOTUzQzE3LjY4OTIgMzYuOTUzIDE5LjA3NTkgMzguMzM5NyAxOS4wNzU5IDQwLjA1MzRaTTMzLjg3NDggMTguOTc0NEMzMi4xNjEyIDE4Ljk3NDQgMzAuNzc0NCAxNy41ODc2IDMwLjc3NDQgMTUuODczOUMzMC43NzQ0IDE0LjE2MDMgMzIuMTYxMiAxMi43NzM1IDMzLjg3NDggMTIuNzczNUMzNS41ODg1IDEyLjc3MzUgMzYuOTc1MyAxNC4xNjAzIDM2Ljk3NTMgMTUuODczOUMzNi45NzUzIDE3LjU4NzYgMzUuNTc4NiAxOC45NzQ0IDMzLjg3NDggMTguOTc0NFoiIGZpbGw9IiNGRkRCQ0EiIGlkPSJwYXRoNjE5MSIvPiYjeGE7PC9zdmc+;labelBackgroundColor=none;fillColor=#FFFFFF;labelPosition=center;align=center;" vertex="1" parent="34">
                    <mxGeometry width="49" height="49" as="geometry"/>
                </mxCell>
                <mxCell id="19" value="variables.schema" style="dashed=0;outlineConnect=0;html=1;align=center;labelPosition=center;verticalLabelPosition=bottom;verticalAlign=top;shape=mxgraph.weblogos.json;fillColor=#FFFFFF;" vertex="1" parent="34">
                    <mxGeometry x="89" y="63.60000000000002" width="51.53" height="55.8" as="geometry"/>
                </mxCell>
                <mxCell id="21" style="edgeStyle=none;html=1;startArrow=none;startFill=0;" edge="1" parent="34" source="17" target="19">
                    <mxGeometry relative="1" as="geometry">
                        <Array as="points">
                            <mxPoint x="25" y="92"/>
                        </Array>
                    </mxGeometry>
                </mxCell>
                <mxCell id="20" value="pipeline definition" style="shape=image;verticalLabelPosition=bottom;labelBackgroundColor=none;verticalAlign=top;aspect=fixed;imageAspect=0;image=data:image/svg+xml,PHN2ZyB4bWxucz0iaHR0cDovL3d3dy53My5vcmcvMjAwMC9zdmciIGNsYXNzPSJzdmctaWNvbiIgc3R5bGU9IndpZHRoOiAxZW07IGhlaWdodDogMWVtO3ZlcnRpY2FsLWFsaWduOiBtaWRkbGU7ZmlsbDogY3VycmVudENvbG9yO292ZXJmbG93OiBoaWRkZW47IiB2aWV3Qm94PSIwIDAgMTAyNCAxMDI0IiB2ZXJzaW9uPSIxLjEiPjxwYXRoIGQ9Ik0zNTQuNDAxMjggMGMtODcuMDQgMC0xNTcuNDQgNzAuNTU4NzItMTU3LjQ0IDE1Ny41OTg3MnYyNzUuNjgxMjhINzguNzJjLTIxLjY1NzYgMC0zOS4zNjI1NiAxNy42OTk4NC0zOS4zNjI1NiAzOS4zNjI1NnYyMzYuMzE4NzJjMCAyMS42NTc2IDE3LjY5OTg0IDM5LjM1NzQ0IDM5LjM2MjU2IDM5LjM1NzQ0aDExOC4yNDEyOHYxMTguMDgyNTZjMCA4Ny4wNCA3MC40IDE1Ny41OTg3MiAxNTcuNDQgMTU3LjU5ODcyaDQ3Mi42Mzc0NGM4Ny4wNCAwIDE1Ny41OTg3Mi03MC41NTg3MiAxNTcuNTk4NzItMTU3LjU5ODcyVjMxNS4wMzM2YzAtNDEuNzQ4NDgtMzguOTg4OC04MS45MzAyNC0xMDcuNTItMTQ5LjI3ODcybC0yOS4xMTc0NC0yOS4xMjI1Nkw4MTguODc3NDQgMTA3LjUyQzc1MS41MzkyIDM4Ljk4ODggNzExLjM5MzI4IDAgNjY5LjU5ODcyIDBIMzU0LjQwNjR6IG0wIDc4LjcyaDI4Ny4yMDEyOGMyOC4zNTQ1NiA3LjA5MTIgMjcuOTk2MTYgNDIuMTM3NiAyNy45OTYxNiA3Ni44djEyMC4xNjEyOGMwIDIxLjY1NzYgMTcuNjk5ODQgMzkuMzU3NDQgMzkuMzYyNTYgMzkuMzU3NDRoMTE4LjA3NzQ0YzM5LjM4ODE2IDAgNzguODc4NzItMC4wMjU2IDc4Ljg3ODcyIDM5LjM2MjU2djUxMmMwIDQzLjMyMDMyLTM1LjU1MzI4IDc4Ljg3ODcyLTc4Ljg3ODcyIDc4Ljg3ODcySDM1NC40MDY0Yy00My4zMjU0NCAwLTc4LjcyLTM1LjU1ODQtNzguNzItNzguODc4NzJ2LTExOC4wODI1NmgzOTMuOTE3NDRjMjEuNjYyNzIgMCAzOS4zNjI1Ni0xNy42OTQ3MiAzOS4zNjI1Ni0zOS4zNTc0NFY0NzIuNjQyNTZjMC0yMS42NjI3Mi0xNy42OTk4NC0zOS4zNjI1Ni0zOS4zNjI1Ni0zOS4zNjI1NkgyNzUuNjgxMjhWMTU3LjU5ODcyYzAtNDMuMzIwMzIgMzUuMzk0NTYtNzguODc4NzIgNzguNzItNzguODc4NzJ6TTI2MS4yNzM2IDUwNi4zOTg3MmgyMC4xNjI1Nmw2NS4yOCAxNzYuNjRoLTIzLjA0bC0xOS4yLTU0LjcxNzQ0aC02NS4yOGwtMTkuMiA1NC43MTc0NGgtMjMuMDRsNjQuMzE3NDQtMTc2LjY0eiBtLTE4MS40Mzc0NCAwLjk2MjU2aDIzLjk5NzQ0bDQwLjMyIDg5LjI3NzQ0IDQxLjI4MjU2LTg5LjI3NzQ0aDIzLjk5NzQ0bC01My43NiAxMDcuNTJ2NjguMTU3NDRoLTIyLjA3NzQ0di02Ny4ybC01My43Ni0xMDguNDc3NDR6IG0yOTAuODc3NDQgMGgzMi42NGw0OS45MiAxNDMuMDM3NDRoMC45NjI1Nmw0OC45NTc0NC0xNDMuMDM3NDRoMzMuNjAyNTZ2MTc1LjY3NzQ0aC0yMi4wODI1NnYtMTA2LjU1NzQ0YzAtMTAuODggMC4zMjI1Ni0yNi41NjI1NiAwLjk2MjU2LTQ3LjA0MjU2aC0wLjk2MjU2bC01Mi43OTc0NCAxNTMuNmgtMTkuMmwtNTIuODAyNTYtMTUzLjZoLTAuOTU3NDRjMS4yOCAyMi40IDEuOTIgMzguNzIyNTYgMS45MiA0OC45NjI1NnYxMDQuNjM3NDRoLTIwLjE2MjU2VjUwNy4zNjEyOHogbTIxNC4wODI1NiAwaDIyLjA3NzQ0djE1NS41Mmg2OS4xMnYyMC4xNTc0NEg1ODQuODA2NFY1MDcuMzYxMjh6IG0tMzEyLjk2IDIzLjA0Yy0xLjkyIDguOTYtNC44MDI1NiAxOC4yMzc0NC04LjY0MjU2IDI3LjgzNzQ0bC0xNy4yOCA1MC44ODI1Nmg1MS44NGwtMTguMjM3NDQtNTAuODgyNTZjLTMuODQtMTAuODgtNi40LTIwLjE1NzQ0LTcuNjgtMjcuODM3NDR6Ii8+PC9zdmc+;imageBackground=#FFFFFF;" vertex="1" parent="34">
                    <mxGeometry x="89.00000000000003" y="170" width="60" height="60" as="geometry"/>
                </mxCell>
                <mxCell id="22" style="edgeStyle=none;html=1;startArrow=none;startFill=0;" edge="1" parent="34" source="17" target="20">
                    <mxGeometry relative="1" as="geometry">
                        <Array as="points">
                            <mxPoint x="25" y="200"/>
                        </Array>
                    </mxGeometry>
                </mxCell>
                <mxCell id="26" value="" style="shape=image;verticalLabelPosition=bottom;verticalAlign=top;imageAspect=0;aspect=fixed;image=data:image/svg+xml,PHN2ZyB4bWxuczpkYz0iaHR0cDovL3B1cmwub3JnL2RjL2VsZW1lbnRzLzEuMS8iIHhtbG5zOmNjPSJodHRwOi8vY3JlYXRpdmVjb21tb25zLm9yZy9ucyMiIHhtbG5zOnJkZj0iaHR0cDovL3d3dy53My5vcmcvMTk5OS8wMi8yMi1yZGYtc3ludGF4LW5zIyIgeG1sbnM6c3ZnPSJodHRwOi8vd3d3LnczLm9yZy8yMDAwL3N2ZyIgeG1sbnM9Imh0dHA6Ly93d3cudzMub3JnLzIwMDAvc3ZnIiB4bWxuczpzb2RpcG9kaT0iaHR0cDovL3NvZGlwb2RpLnNvdXJjZWZvcmdlLm5ldC9EVEQvc29kaXBvZGktMC5kdGQiIHhtbG5zOmlua3NjYXBlPSJodHRwOi8vd3d3Lmlua3NjYXBlLm9yZy9uYW1lc3BhY2VzL2lua3NjYXBlIiB3aWR0aD0iNDkiIGhlaWdodD0iNDkiIHZpZXdCb3g9IjAgMCA0OSA0OSIgZmlsbD0ibm9uZSIgdmVyc2lvbj0iMS4xIiBpZD0ic3ZnNjE0NSIgc29kaXBvZGk6ZG9jbmFtZT0iQXp1cmUgUGlwZWxpbmVzLnN2ZyIgaW5rc2NhcGU6dmVyc2lvbj0iMC45Mi4zICgyNDA1NTQ2LCAyMDE4LTAzLTExKSI+JiN4YTsgIDxtZXRhZGF0YSBpZD0ibWV0YWRhdGE2MTUxIj4mI3hhOyAgICA8cmRmOlJERj4mI3hhOyAgICAgIDxjYzpXb3JrIHJkZjphYm91dD0iIj4mI3hhOyAgICAgICAgPGRjOmZvcm1hdD5pbWFnZS9zdmcreG1sPC9kYzpmb3JtYXQ+JiN4YTsgICAgICAgIDxkYzp0eXBlIHJkZjpyZXNvdXJjZT0iaHR0cDovL3B1cmwub3JnL2RjL2RjbWl0eXBlL1N0aWxsSW1hZ2UiLz4mI3hhOyAgICAgICAgPGRjOnRpdGxlLz4mI3hhOyAgICAgIDwvY2M6V29yaz4mI3hhOyAgICA8L3JkZjpSREY+JiN4YTsgIDwvbWV0YWRhdGE+JiN4YTsgIDxkZWZzIGlkPSJkZWZzNjE0OSIvPiYjeGE7ICA8c29kaXBvZGk6bmFtZWR2aWV3IHBhZ2Vjb2xvcj0iI2ZmZmZmZiIgYm9yZGVyY29sb3I9IiM2NjY2NjYiIGJvcmRlcm9wYWNpdHk9IjEiIG9iamVjdHRvbGVyYW5jZT0iMTAiIGdyaWR0b2xlcmFuY2U9IjEwIiBndWlkZXRvbGVyYW5jZT0iMTAiIGlua3NjYXBlOnBhZ2VvcGFjaXR5PSIwIiBpbmtzY2FwZTpwYWdlc2hhZG93PSIyIiBpbmtzY2FwZTp3aW5kb3ctd2lkdGg9IjY0MCIgaW5rc2NhcGU6d2luZG93LWhlaWdodD0iNDgwIiBpZD0ibmFtZWR2aWV3NjE0NyIgc2hvd2dyaWQ9ImZhbHNlIiBpbmtzY2FwZTp6b29tPSI2LjM4Nzc1NTEiIGlua3NjYXBlOmN4PSIyNC41IiBpbmtzY2FwZTpjeT0iMjQuNSIgaW5rc2NhcGU6d2luZG93LXg9IjAiIGlua3NjYXBlOndpbmRvdy15PSIwIiBpbmtzY2FwZTp3aW5kb3ctbWF4aW1pemVkPSIxIiBpbmtzY2FwZTpjdXJyZW50LWxheWVyPSJzdmc2MTQ1Ii8+JiN4YTsgIDxwYXRoIGQ9Ik0xNy4xNjcxIDQxLjk1ODhMMjMuNjU5MSA0OC40NTA4SDM0LjE5NTFDMzUuNDc5MSA0OC40NTA4IDM2LjUxMTEgNDcuNDA2OCAzNi41MTExIDQ2LjEzNDhWMjEuNzk4OEwxNy4xNjcxIDQxLjE1NDhDMTYuOTM5MSA0MS4zNzA4IDE2LjkzOTEgNDEuNzMwOCAxNy4xNjcxIDQxLjk1ODhaIiBmaWxsPSIjMjM1REMxIiBpZD0icGF0aDYxMzEiLz4mI3hhOyAgPHBhdGggZD0iTTAuNjQ0NTMxIDE0LjkwMjJWMjUuNDM4Mkw3LjEzNjUyIDMxLjkzMDJDNy4zNjQ1MiAzMi4xNTgyIDcuNzI0NTIgMzIuMTU4MiA3Ljk0MDUyIDMxLjkzMDJMMjcuMjk2NSAxMi41NzQySDIuOTYwNTNDMS42ODg1MyAxMi41NzQyIDAuNjQ0NTMxIDEzLjYxODIgMC42NDQ1MzEgMTQuOTAyMloiIGZpbGw9IiMzQjZFQzYiIGlkPSJwYXRoNjEzMyIvPiYjeGE7ICA8cGF0aCBkPSJNMjUuMDA0IDMuMTA0MjVMOS4zODAwNSAyNy4wMDgyQzguODUyMDUgMjcuODI0MiA4Ljk2MDA1IDI4Ljg5MjIgOS42NDQwNSAyOS41NzYyTDE5LjY1MiAzOS41ODQyQzIwLjMzNiA0MC4yNjgyIDIxLjQxNiA0MC4zNzYyIDIyLjIyIDM5Ljg0ODJMNDYuMTI0IDI0LjIxMjJDNDcuNjQ4IDIzLjIxNjIgNDguNTYgMjEuNTEyMiA0OC41NiAxOS43MDAyVjMuMDMyMjVDNDguNTYgMS43MjQyNSA0Ny40OTIgMC42NTYyNSA0Ni4xODQgMC42NTYyNUgyOS41MjhDMjcuNzA0IDAuNjU2MjUgMjYuMDEyIDEuNTgwMjUgMjUuMDA0IDMuMTA0MjVaIiBmaWxsPSIjNUQ4REU0IiBpZD0icGF0aDYxMzUiLz4mI3hhOyAgPHBhdGggZD0iTTQuMTYwNTIgNDUuMTY0OFYzNi43MTY4SDAuNjQ0NTMxVjQ4LjUwMDhIMTIuNjA4NVY0NS4xNjQ4SDQuMTYwNTJaIiBmaWxsPSIjOUZCQkYwIiBpZD0icGF0aDYxMzciLz4mI3hhOyAgPHBhdGggZD0iTTM2LjU2OTIgMTguMzY2OUMzOS44NTY0IDE4LjM2NjkgNDIuNTIxMiAxNS43MDIxIDQyLjUyMTIgMTIuNDE0OUM0Mi41MjEyIDkuMTI3NjkgMzkuODU2NCA2LjQ2Mjg5IDM2LjU2OTIgNi40NjI4OUMzMy4yODIgNi40NjI4OSAzMC42MTcyIDkuMTI3NjkgMzAuNjE3MiAxMi40MTQ5QzMwLjYxNzIgMTUuNzAyMSAzMy4yODIgMTguMzY2OSAzNi41NjkyIDE4LjM2NjlaIiBmaWxsPSIjQURDNUYyIiBpZD0icGF0aDYxMzkiLz4mI3hhOyAgPHBhdGggZD0iTTI1LjkxNTMgMjAuMzg5NEwxMy4xODc1IDMzLjExNzJMMTYuMTIzNCAzNi4wNTMxTDI4Ljg1MTEgMjMuMzI1M0wyNS45MTUzIDIwLjM4OTRaIiBmaWxsPSIjNkM5QUVFIiBpZD0icGF0aDYxNDEiLz4mI3hhOyAgPHBhdGggZD0iTTEzLjU4ODYgMzguNTg1MkwxNi4xMTcyIDM2LjA1NjZMMTMuMTgxMyAzMy4xMjA4TDEwLjY1MjcgMzUuNjQ5NEwxMy41ODg2IDM4LjU4NTJaIiBmaWxsPSIjODhBQ0VGIiBpZD0icGF0aDYxNDMiLz4mI3hhOzwvc3ZnPg==" vertex="1" parent="34">
                    <mxGeometry x="325" y="180" width="40" height="40" as="geometry"/>
                </mxCell>
                <mxCell id="28" value="defines pipeline&lt;br&gt;uses variables" style="edgeStyle=none;html=1;startArrow=none;startFill=0;labelBackgroundColor=none;" edge="1" parent="34" source="20" target="26">
                    <mxGeometry relative="1" as="geometry"/>
                </mxCell>
                <mxCell id="29" style="edgeStyle=none;html=1;startArrow=none;startFill=0;" edge="1" parent="34" source="27" target="26">
                    <mxGeometry relative="1" as="geometry"/>
                </mxCell>
                <mxCell id="30" value="Passes variables and executes" style="edgeLabel;html=1;align=center;verticalAlign=middle;resizable=0;points=[];labelBackgroundColor=none;" vertex="1" connectable="0" parent="29">
                    <mxGeometry x="-0.3134" y="-1" relative="1" as="geometry">
                        <mxPoint as="offset"/>
                    </mxGeometry>
                </mxCell>
                <mxCell id="27" value="UI" style="shape=image;verticalLabelPosition=top;labelBackgroundColor=none;verticalAlign=bottom;aspect=fixed;imageAspect=0;image=data:image/png,iVBORw0KGgoAAAANSUhEUgAAAJYAAAArCAYAAACaVXFJAAAH+ElEQVR4Ae2b/XNMVxjH+6Nqp6akGmWN11EVRpViWk20Wm9TpUOplqAUremMGq2iRdVoFxMdtGhLSJNuXoggLyK7hMirlyLLyuaFbF5k/4lv5zl3z95zX7LZTVYq9vxwZzd3z73nnOf5PN/nueeePOX1eiEPaYNwM/BUuG8o7ychJQYkWFKxH0nGkmBJsCRYMs12nTQrFUsqllQsqVhPgGK53Y3Iy3Eh56zxyM12wX6+ChXldaitbXokxEuIug5EZr5qNRUSMJ/Oy0O/nkkY+GIKxsVkYNxI5XhtRDpeHmDD4JeSETcxE0f/+BceT7METKZVPwOtgkUUHv3rBvr0SMKUN7OYOt1xekCHs9KD0pJa/HnwBma+cxoDo5OxaX0R6uslXGbRG4nnAoKVnlqJPj2OY9rkMyzlOexuHPrtmv84/Pt1pKbcxuQJmQyug/uvo6amEU1ND/3kRqJR5ZzbWCDVg1VeVodpcaeZik0al4lP5p3Djm0l2LunHP16JWFq7Bns/rkcM94+g0MHrksFi+DUGJJiNTY+xIrFBejVPRGbvinC3Tse1NU1IS/bhZFDUjFikA3HjtzE5ImnMKRvMqw/laG5uUWqVwQCFhJYBMmqpXYG1o/fl6ChQUl553LuIWawjYF16WI1Cs5VYWxMBjt3wV4twZJgaR9x9anQDKyHD1tw8MB19O2ZhCmTsnDHWc+eEDesu4wXnjmGzxadR0uLVK1Iq7s6rFi3b9WzmsoSlYRdO8tAoNGRlHgLPbsdxfhRGeFZinDbEG+xwOrQwt8lHcbmEg+b+xHNxWGFJd4Gt14pWb9WOPTnTf92wxbffnuHDNbaLwsxZng66Amw8EI1vljhwKDoZKxcVoCqew0s7ZGy0VLE892O4o2xJ0G1WUcBcFgtsFqtsFgdId/LbYtv13UdHTO/vtP77ypgTY1VUhwtmp5IcyJhdzk2f1uE2NczMWpoKrZsKkZlpcfv8Pv3m7BqmR29nz2GtWsK/ee5oUP/dMBqoUijz9AjvdMdq1OATu+/q4A1rP8/WL64AEsW5mPerBx8OCMbc2bkMKVaND8f91wqVKRWmRlOjBhsA63QlxTXdhwsMpRPqUi54m1u4Z4msAmGpfYWi3qoqZSuU89bGLg8NfE0ILRh/SvnlfvpAKc+hfvxMZr3bxwzg8/kehaEvvk4SHl5m0DKLcxfE8SaVGgcg1dzHbeBOOfgU2NQqfDV4WlI2FWOI4dvYP/ea/hlRynSbJXsCZEU62SGky0rVFc3IiXpNnvNQ0sP+xKusnpLMzldNAfzG0uDvLbSTJ5AaMtAXhgVQwGGO5/GwNr46xJuTF6PKO0tgloyYATnOqy8rRfMQQKo5v2rYCpQCdezOQlOpDlbhIBqq970tfdDyGFkn7yftuzGbaCO0xtCbRgUWLTyXlPTxFbU131ViIHRKdi8oQhns+5i0riTmDMzG/m5LixfVIDhA2yYPvkMW5EPR22lTIYbwwyktgxkApYBTv19ebRyBfNCD5I2utV2SqBoxxQYLGNfftA5uCbjpfGIgaEJUJP27Pd2KZZ2bgH7FUQjKLCmxp1mr3Qoza1e5kBU90TETTiFhF0VoGWFQX1SsHN7KUuXQ/ulsPrL4+l4we43sCbifOmLG70dimV0NBlPdLD4XTEsXaNxpN55PhVRVUKNdGN/Injid8GJ4v3F7z7nBXSwSftwgWWwgwCTCHdAsDLSnOxdoR4sWnmnmste4MbZLBcG9E4G1VruqgbMfT8XlDovXawR6iDBYK0MRByU+t3o4NANFKxiUV8cBmO/BoOKztMoAc1VC0tgsIx9sTnS/XnwiH39z2AFBFrwbbvB4ivvtCAaN/EURg9LQ1lJLU6kOzGkXzI+X2L3r8yroIQImMFh/HrRGcp3VU3IqRbNOo65Y7WphLXR1Vhqoa/Aqfbhq6N4e73j6W+hHjPvn0PsA1+oyRQwdTUW7ytsYLVlN+V3zXoYm5dYlnB/GD+DAuu92Cy2a4GnQlIsDlZdXSNWLrXDEvU3W4agtSx6eqQnyfN59zqkWhQd/qgVooFA1YCgSUNWOPSO9hXDlKZUWHwA8jSrcZwIrmI06q9VsHxp1J8GrVbdsojal9K/VtH88+Fj0YxTB3HYwPJCqV/5k7Hebj4b2JSFaWVuajC0JRYBweKvdN59ywjWts3FTJGoQN/y3RVEdT+G+I/z2Y4G2vjXPyoJG9cXoaXFSHNbg5K/d32btQoWvZax7ihF9HPHMWH0Cdy6Wc+eCql4J8USwdr+QzF6dkvEmFfScbmwGpcuuhEzOJW9O3zwQG5djsRAaRWsirI6kFKNHGLD2Bh6hXMNDx40+58Kt266whTr7l0P4hfks50M1PbrNYW4WlGH2PGn2NZl+h6Jho30ObcKFm0zpi3I/KiqakBDQzNbFKXlhq0br7CXy7Rb1FlZ729He7RooXT29Gy2IXBfQoUES1cfRgJ0rYJlNnm3uwHzZuWyXQurl9lB/8lj1o4K+o9m56LX04nsidHlUl5Om7WV57p+PWXmw5DAyjxxB/Nn57JtMgvn5iH7tMsUrNLiWixekM/afTA1G7/ukaplZvwn+VxIYD3JhpBzC69ySrAisP7pjCCSYEmwTMuZjsInwZJgSbA6GkXy+vDWUYHsKRVLKpZUrEARIn/rPDUKxtZSsaRiScUKJlJkm8dDuaRiScWSiiXV6PFQo2D8IBVLKtYjUaz/AO7vqWkJrKl7AAAAAElFTkSuQmCC;labelPosition=center;align=center;" vertex="1" parent="34">
                    <mxGeometry x="270" y="70" width="150" height="43" as="geometry"/>
                </mxCell>
                <mxCell id="24" style="edgeStyle=none;html=1;startArrow=none;startFill=0;" edge="1" parent="34" source="19" target="27">
                    <mxGeometry relative="1" as="geometry">
                        <mxPoint x="270" y="97.90000000000009" as="targetPoint"/>
                        <Array as="points"/>
                    </mxGeometry>
                </mxCell>
                <mxCell id="31" value="Generate UI" style="edgeLabel;html=1;align=center;verticalAlign=middle;resizable=0;points=[];labelBackgroundColor=none;" vertex="1" connectable="0" parent="24">
                    <mxGeometry x="-0.2667" y="1" relative="1" as="geometry">
                        <mxPoint x="2" y="-10" as="offset"/>
                    </mxGeometry>
                </mxCell>
            </root>
        </mxGraphModel>
    </diagram>
</mxfile>